<svg xmlns="http://www.w3.org/2000/svg" version="1.1" xmlns:xlink="http://www.w3.org/1999/xlink" xmlns:svgjs="http://svgjs.dev/svgjs" width="2000" height="3604" viewBox="0 0 2000 3604"><g transform="matrix(1,0,0,1,-2.0515866669713887,-4.395121951219153)"><svg viewBox="0 0 182 328" data-background-color="#111827" preserveAspectRatio="xMidYMid meet" height="3604" width="2000" xmlns="http://www.w3.org/2000/svg" xmlns:xlink="http://www.w3.org/1999/xlink"><g id="tight-bounds" transform="matrix(1,0,0,1,0.18669438669439842,0.39999999999997726)"><svg viewBox="0 0 181.6266112266112 327.2" height="327.2" width="181.6266112266112"><g><svg viewBox="0 0 181.62661122661123 327.20000000000005" height="327.2" width="181.6266112266112"><g><svg viewBox="0 0 181.62661122661123 327.20000000000005" height="327.20000000000005" width="181.62661122661123"><g id="textblocktransform"><svg viewBox="0 0 181.62661122661123 327.20000000000005" height="327.20000000000005" width="181.62661122661123" id="textblock"><g><svg viewBox="0 0 181.62661122661123 327.20000000000005" height="327.20000000000005" width="181.62661122661123"><g transform="matrix(1,0,0,1,0,0)"><svg width="181.62661122661123" viewBox="0.39 -34.74 19.56 35.230000000000004" height="327.20000000000005" data-palette-color="#ffffff"><path d="M10.18 0.49L10.18 0.49Q7.42 0.49 5.18-0.83L5.18-0.83Q2.95-2.15 1.67-4.48 0.39-6.81 0.39-9.69L0.39-9.69 0.39-12.01Q0.39-12.21 0.59-12.21L0.59-12.21 6.25-12.21Q6.45-12.21 6.45-11.94L6.45-11.94 6.45-9.69Q6.45-7.86 7.5-6.7 8.54-5.54 10.18-5.54L10.18-5.54Q11.69-5.54 12.79-6.8 13.89-8.06 13.89-9.69L13.89-9.69 13.89-34.55Q13.89-34.74 14.09-34.74L14.09-34.74 19.7-34.74Q19.9-34.74 19.9-34.5L19.9-34.5 19.95-9.69Q19.95-6.96 18.63-4.64L18.63-4.64Q17.29-2.29 15.09-0.9 12.89 0.49 10.18 0.49Z" opacity="1" transform="matrix(1,0,0,1,0,0)" fill="#000000" class="wordmark-text-0" data-fill-palette-color="primary" id="text-0"></path></svg></g></svg></g></svg></g></svg></g><g></g></svg></g><defs></defs></svg><rect width="181.6266112266112" height="327.2" fill="none" stroke="none" visibility="hidden"></rect></g></svg></g></svg>